<?xml version="1.0" standalone="no"?>
<!DOCTYPE svg PUBLIC "-//W3C//DTD SVG 20010904//EN"
 "http://www.w3.org/TR/2001/REC-SVG-20010904/DTD/svg10.dtd">
<svg version="1.0" xmlns="http://www.w3.org/2000/svg"
 width="128.000000pt" height="128.000000pt" viewBox="0 0 128.000000 128.000000"
 preserveAspectRatio="xMidYMid meet">
<metadata>
Created by potrace 1.14, written by Peter Selinger 2001-2017
</metadata>
<g transform="translate(0.000000,128.000000) scale(0.100000,-0.100000)"
fill="#000000" stroke="none">
<path d="M802 947 c-10 -23 -23 -52 -26 -64 -7 -22 -26 -32 -26 -15 0 16 -75
44 -130 49 -86 8 -137 -11 -193 -69 -26 -28 -49 -49 -51 -47 -2 2 -11 20 -21
39 -9 19 -27 45 -38 58 -20 21 -22 21 -28 5 -6 -17 0 -52 15 -101 7 -22 6 -22
-39 -19 -57 4 -73 -11 -45 -43 21 -24 20 -27 -22 -75 -15 -18 -60 -124 -76
-180 -3 -11 -6 -94 -6 -185 -1 -139 -3 -165 -16 -166 -8 0 -32 -4 -52 -8 -43
-9 -46 -20 -34 -101 3 -20 11 -20 570 -23 503 -2 568 0 562 13 -6 18 37 21 78
6 35 -14 45 4 37 66 -6 39 -4 54 6 57 20 8 16 23 -16 64 -16 20 -31 48 -35 62
-4 16 -25 37 -61 59 -30 18 -55 39 -56 45 0 6 -2 25 -4 41 -2 17 -6 53 -9 80
-15 138 -44 215 -106 276 -35 35 -38 42 -27 60 21 34 -9 43 -90 25 l-31 -7 8
34 c4 19 4 40 0 47 -4 7 -5 20 -3 30 10 37 -16 28 -35 -13z m74 -211 c6 -6 25
-23 42 -38 57 -50 74 -103 72 -228 0 -80 -6 -100 -29 -100 -9 0 -22 -5 -28
-11 -9 -9 -38 -4 -115 21 -57 18 -105 35 -107 36 -2 2 9 14 23 29 14 14 29 37
32 50 6 24 24 35 24 15 0 -5 4 -10 10 -10 5 0 7 7 4 15 -3 8 1 24 10 37 17 23
22 79 9 92 -5 4 -8 22 -9 40 -1 17 -5 42 -9 55 -7 22 -5 23 26 16 18 -4 38
-13 45 -19z m-501 -106 c3 -11 8 -32 11 -47 3 -14 14 -46 24 -69 11 -24 20
-48 20 -53 0 -6 5 -11 10 -11 6 0 10 7 10 16 0 12 10 7 39 -17 22 -19 40 -37
40 -40 1 -4 -14 -10 -31 -13 -18 -3 -62 -19 -96 -36 -35 -16 -79 -30 -97 -30
-22 0 -38 -7 -49 -23 -15 -21 -16 -15 -12 103 6 162 14 183 81 222 38 22 42
22 50 -2z"/>
</g>
</svg>
